<svg xmlns="http://www.w3.org/2000/svg" width="2592" height="2016" viewBox="0 0 2592 2016"><rect width="100%" height="100%" fill="white"/><text x="1296" y="56" text-anchor="middle" font-family="Arial, Helvetica, sans-serif" font-size="34" font-weight="700" fill="#1a1a1a">Random scenarios - Discount CRM prior sensitivity (alpha = 0.9)</text><text x="1296" y="88" text-anchor="middle" font-family="Arial, Helvetica, sans-serif" font-size="20" font-weight="400" fill="#4D4D4D">Target gaps: 0.05, 0.10, and 0.15. Oracle = r-fixed CRM at alpha = 0; its duration is 56 days per administration.</text><rect x="85" y="125" width="572.5" height="820.5" fill="#EBEBEB"/><line x1="161" y1="900.5" x2="635.5" y2="900.5" stroke="#ffffff" stroke-width="1.2"/><text x="150" y="905.5" text-anchor="end" font-family="Arial, Helvetica, sans-serif" font-size="15" font-weight="400" fill="#4D4D4D">0.00</text><line x1="161" y1="752.2" x2="635.5" y2="752.2" stroke="#ffffff" stroke-width="1.2"/><text x="150" y="757.2" text-anchor="end" font-family="Arial, Helvetica, sans-serif" font-size="15" font-weight="400" fill="#4D4D4D">20</text><line x1="161" y1="603.9" x2="635.5" y2="603.9" stroke="#ffffff" stroke-width="1.2"/><text x="150" y="608.9" text-anchor="end" font-family="Arial, Helvetica, sans-serif" font-size="15" font-weight="400" fill="#4D4D4D">40</text><line x1="161" y1="455.6" x2="635.5" y2="455.6" stroke="#ffffff" stroke-width="1.2"/><text x="150" y="460.6" text-anchor="end" font-family="Arial, Helvetica, sans-serif" font-size="15" font-weight="400" fill="#4D4D4D">60</text><line x1="161" y1="307.29999999999995" x2="635.5" y2="307.29999999999995" stroke="#ffffff" stroke-width="1.2"/><text x="150" y="312.29999999999995" text-anchor="end" font-family="Arial, Helvetica, sans-serif" font-size="15" font-weight="400" fill="#4D4D4D">80</text><line x1="161" y1="159" x2="635.5" y2="159" stroke="#ffffff" stroke-width="1.2"/><text x="150" y="164" text-anchor="end" font-family="Arial, Helvetica, sans-serif" font-size="15" font-weight="400" fill="#4D4D4D">100</text><rect x="176.81666666666666" y="657.7143625" width="24.506666666666664" height="242.7856375" fill="#0072B2"/><rect x="334.98333333333335" y="532.999253" width="24.506666666666664" height="367.50074700000005" fill="#0072B2"/><rect x="493.1500000000001" y="463.91963000000004" width="24.506666666666664" height="436.58036999999996" fill="#0072B2"/><rect x="202.12333333333333" y="649.184888" width="24.506666666666664" height="251.315112" fill="#D55E00"/><rect x="360.29" y="533.7162834999999" width="24.506666666666664" height="366.7837165000001" fill="#D55E00"/><rect x="518.4566666666667" y="470.73994700000003" width="24.506666666666664" height="429.76005299999997" fill="#D55E00"/><rect x="227.43" y="647.1361234999999" width="24.506666666666664" height="253.36387650000006" fill="#009E73"/><rect x="385.5966666666667" y="534.1745305" width="24.506666666666664" height="366.32546950000005" fill="#009E73"/><rect x="543.7633333333334" y="472.74570450000004" width="24.506666666666664" height="427.75429549999996" fill="#009E73"/><rect x="252.73666666666665" y="643.39229" width="24.506666666666664" height="257.10771" fill="#CC79A7"/><rect x="410.9033333333333" y="533.1957505" width="24.506666666666664" height="367.30424949999997" fill="#CC79A7"/><rect x="569.07" y="474.27319450000005" width="24.506666666666664" height="426.22680549999995" fill="#CC79A7"/><rect x="278.0433333333333" y="644.5601525" width="24.506666666666664" height="255.93984750000004" fill="#222222"/><rect x="436.21000000000004" y="527.387581" width="24.506666666666664" height="373.11241900000005" fill="#222222"/><rect x="594.3766666666668" y="459.96372750000006" width="24.506666666666664" height="440.53627249999994" fill="#222222"/><text x="240.08333333333331" y="923.5" text-anchor="middle" font-family="Arial, Helvetica, sans-serif" font-size="15" font-weight="400" fill="#4D4D4D">0.05</text><text x="398.25" y="923.5" text-anchor="middle" font-family="Arial, Helvetica, sans-serif" font-size="15" font-weight="400" fill="#4D4D4D">0.10</text><text x="556.4166666666667" y="923.5" text-anchor="middle" font-family="Arial, Helvetica, sans-serif" font-size="15" font-weight="400" fill="#4D4D4D">0.15</text><text x="398.25" y="146" text-anchor="middle" font-family="Arial, Helvetica, sans-serif" font-size="18" font-weight="400" fill="#1a1a1a">(A) MTD selection</text><text x="105" y="529.75" text-anchor="middle" font-family="Arial, Helvetica, sans-serif" font-size="15" font-weight="400" fill="#333333" transform="rotate(-90 105 529.75)">Percentage (%)</text><rect x="701.5" y="125" width="572.5" height="820.5" fill="#EBEBEB"/><line x1="777.5" y1="900.5" x2="1252" y2="900.5" stroke="#ffffff" stroke-width="1.2"/><text x="766.5" y="905.5" text-anchor="end" font-family="Arial, Helvetica, sans-serif" font-size="15" font-weight="400" fill="#4D4D4D">0.00</text><line x1="777.5" y1="752.2" x2="1252" y2="752.2" stroke="#ffffff" stroke-width="1.2"/><text x="766.5" y="757.2" text-anchor="end" font-family="Arial, Helvetica, sans-serif" font-size="15" font-weight="400" fill="#4D4D4D">20</text><line x1="777.5" y1="603.9" x2="1252" y2="603.9" stroke="#ffffff" stroke-width="1.2"/><text x="766.5" y="608.9" text-anchor="end" font-family="Arial, Helvetica, sans-serif" font-size="15" font-weight="400" fill="#4D4D4D">40</text><line x1="777.5" y1="455.6" x2="1252" y2="455.6" stroke="#ffffff" stroke-width="1.2"/><text x="766.5" y="460.6" text-anchor="end" font-family="Arial, Helvetica, sans-serif" font-size="15" font-weight="400" fill="#4D4D4D">60</text><line x1="777.5" y1="307.29999999999995" x2="1252" y2="307.29999999999995" stroke="#ffffff" stroke-width="1.2"/><text x="766.5" y="312.29999999999995" text-anchor="end" font-family="Arial, Helvetica, sans-serif" font-size="15" font-weight="400" fill="#4D4D4D">80</text><line x1="777.5" y1="159" x2="1252" y2="159" stroke="#ffffff" stroke-width="1.2"/><text x="766.5" y="164" text-anchor="end" font-family="Arial, Helvetica, sans-serif" font-size="15" font-weight="400" fill="#4D4D4D">100</text><rect x="793.3166666666667" y="695.2280833333333" width="24.506666666666664" height="205.2719166666667" fill="#0072B2"/><rect x="951.4833333333333" y="620.4132050000001" width="24.506666666666664" height="280.08679499999994" fill="#0072B2"/><rect x="1109.65" y="575.70817" width="24.506666666666664" height="324.79183" fill="#0072B2"/><rect x="818.6233333333333" y="693.3496166666666" width="24.506666666666664" height="207.15038333333337" fill="#D55E00"/><rect x="976.79" y="627.2720800000001" width="24.506666666666664" height="273.2279199999999" fill="#D55E00"/><rect x="1134.9566666666667" y="588.7635133333333" width="24.506666666666664" height="311.7364866666667" fill="#D55E00"/><rect x="843.9300000000001" y="693.6239716666666" width="24.506666666666664" height="206.87602833333335" fill="#009E73"/><rect x="1002.0966666666667" y="630.3245883333334" width="24.506666666666664" height="270.1754116666666" fill="#009E73"/><rect x="1160.2633333333333" y="593.7538083333333" width="24.506666666666664" height="306.74619166666673" fill="#009E73"/><rect x="869.2366666666667" y="692.2892716666667" width="24.506666666666664" height="208.21072833333335" fill="#CC79A7"/><rect x="1027.4033333333334" y="631.09822" width="24.506666666666664" height="269.40178000000003" fill="#CC79A7"/><rect x="1185.5700000000002" y="596.3342283333333" width="24.506666666666664" height="304.1657716666667" fill="#CC79A7"/><rect x="894.5433333333334" y="692.39061" width="24.506666666666664" height="208.10938999999996" fill="#222222"/><rect x="1052.71" y="624.7114333333334" width="24.506666666666664" height="275.7885666666666" fill="#222222"/><rect x="1210.8766666666668" y="582.196295" width="24.506666666666664" height="318.30370500000004" fill="#222222"/><text x="856.5833333333334" y="923.5" text-anchor="middle" font-family="Arial, Helvetica, sans-serif" font-size="15" font-weight="400" fill="#4D4D4D">0.05</text><text x="1014.75" y="923.5" text-anchor="middle" font-family="Arial, Helvetica, sans-serif" font-size="15" font-weight="400" fill="#4D4D4D">0.10</text><text x="1172.9166666666667" y="923.5" text-anchor="middle" font-family="Arial, Helvetica, sans-serif" font-size="15" font-weight="400" fill="#4D4D4D">0.15</text><text x="1014.75" y="146" text-anchor="middle" font-family="Arial, Helvetica, sans-serif" font-size="18" font-weight="400" fill="#1a1a1a">(B) MTD allocation</text><text x="721.5" y="529.75" text-anchor="middle" font-family="Arial, Helvetica, sans-serif" font-size="15" font-weight="400" fill="#333333" transform="rotate(-90 721.5 529.75)">Percentage (%)</text><rect x="1318" y="125" width="572.5" height="820.5" fill="#EBEBEB"/><line x1="1394" y1="900.5" x2="1868.5" y2="900.5" stroke="#ffffff" stroke-width="1.2"/><text x="1383" y="905.5" text-anchor="end" font-family="Arial, Helvetica, sans-serif" font-size="15" font-weight="400" fill="#4D4D4D">0.00</text><line x1="1394" y1="752.2" x2="1868.5" y2="752.2" stroke="#ffffff" stroke-width="1.2"/><text x="1383" y="757.2" text-anchor="end" font-family="Arial, Helvetica, sans-serif" font-size="15" font-weight="400" fill="#4D4D4D">20</text><line x1="1394" y1="603.9" x2="1868.5" y2="603.9" stroke="#ffffff" stroke-width="1.2"/><text x="1383" y="608.9" text-anchor="end" font-family="Arial, Helvetica, sans-serif" font-size="15" font-weight="400" fill="#4D4D4D">40</text><line x1="1394" y1="455.6" x2="1868.5" y2="455.6" stroke="#ffffff" stroke-width="1.2"/><text x="1383" y="460.6" text-anchor="end" font-family="Arial, Helvetica, sans-serif" font-size="15" font-weight="400" fill="#4D4D4D">60</text><line x1="1394" y1="307.29999999999995" x2="1868.5" y2="307.29999999999995" stroke="#ffffff" stroke-width="1.2"/><text x="1383" y="312.29999999999995" text-anchor="end" font-family="Arial, Helvetica, sans-serif" font-size="15" font-weight="400" fill="#4D4D4D">80</text><line x1="1394" y1="159" x2="1868.5" y2="159" stroke="#ffffff" stroke-width="1.2"/><text x="1383" y="164" text-anchor="end" font-family="Arial, Helvetica, sans-serif" font-size="15" font-weight="400" fill="#4D4D4D">100</text><rect x="1409.8166666666666" y="790.729823" width="24.506666666666664" height="109.77017699999999" fill="#0072B2"/><rect x="1567.9833333333333" y="787.2796235" width="24.506666666666664" height="113.22037650000004" fill="#0072B2"/><rect x="1726.15" y="789.8481795" width="24.506666666666664" height="110.65182049999999" fill="#0072B2"/><rect x="1435.1233333333332" y="722.9218725000001" width="24.506666666666664" height="177.57812749999994" fill="#D55E00"/><rect x="1593.29" y="733.3532945" width="24.506666666666664" height="167.14670550000005" fill="#D55E00"/><rect x="1751.4566666666667" y="751.230118" width="24.506666666666664" height="149.26988200000005" fill="#D55E00"/><rect x="1460.4299999999998" y="699.620235" width="24.506666666666664" height="200.87976500000002" fill="#009E73"/><rect x="1618.5966666666666" y="714.3130575" width="24.506666666666664" height="186.1869425" fill="#009E73"/><rect x="1776.7633333333333" y="736.846501" width="24.506666666666664" height="163.653499" fill="#009E73"/><rect x="1485.7366666666667" y="685.73194" width="24.506666666666664" height="214.76806" fill="#CC79A7"/><rect x="1643.9033333333334" y="700.9482615" width="24.506666666666664" height="199.55173850000006" fill="#CC79A7"/><rect x="1802.0700000000002" y="726.327582" width="24.506666666666664" height="174.172418" fill="#CC79A7"/><rect x="1511.0433333333333" y="713.1147935" width="24.506666666666664" height="187.38520649999998" fill="#222222"/><rect x="1669.21" y="723.8116725" width="24.506666666666664" height="176.6883275" fill="#222222"/><rect x="1827.3766666666668" y="746.785567" width="24.506666666666664" height="153.71443299999999" fill="#222222"/><text x="1473.0833333333333" y="923.5" text-anchor="middle" font-family="Arial, Helvetica, sans-serif" font-size="15" font-weight="400" fill="#4D4D4D">0.05</text><text x="1631.25" y="923.5" text-anchor="middle" font-family="Arial, Helvetica, sans-serif" font-size="15" font-weight="400" fill="#4D4D4D">0.10</text><text x="1789.4166666666667" y="923.5" text-anchor="middle" font-family="Arial, Helvetica, sans-serif" font-size="15" font-weight="400" fill="#4D4D4D">0.15</text><text x="1631.25" y="146" text-anchor="middle" font-family="Arial, Helvetica, sans-serif" font-size="18" font-weight="400" fill="#1a1a1a">(C) Overdose selection</text><text x="1338" y="529.75" text-anchor="middle" font-family="Arial, Helvetica, sans-serif" font-size="15" font-weight="400" fill="#333333" transform="rotate(-90 1338 529.75)">Percentage (%)</text><rect x="1934.5" y="125" width="572.5" height="820.5" fill="#EBEBEB"/><line x1="2010.5" y1="900.5" x2="2485" y2="900.5" stroke="#ffffff" stroke-width="1.2"/><text x="1999.5" y="905.5" text-anchor="end" font-family="Arial, Helvetica, sans-serif" font-size="15" font-weight="400" fill="#4D4D4D">0.00</text><line x1="2010.5" y1="752.2" x2="2485" y2="752.2" stroke="#ffffff" stroke-width="1.2"/><text x="1999.5" y="757.2" text-anchor="end" font-family="Arial, Helvetica, sans-serif" font-size="15" font-weight="400" fill="#4D4D4D">20</text><line x1="2010.5" y1="603.9" x2="2485" y2="603.9" stroke="#ffffff" stroke-width="1.2"/><text x="1999.5" y="608.9" text-anchor="end" font-family="Arial, Helvetica, sans-serif" font-size="15" font-weight="400" fill="#4D4D4D">40</text><line x1="2010.5" y1="455.6" x2="2485" y2="455.6" stroke="#ffffff" stroke-width="1.2"/><text x="1999.5" y="460.6" text-anchor="end" font-family="Arial, Helvetica, sans-serif" font-size="15" font-weight="400" fill="#4D4D4D">60</text><line x1="2010.5" y1="307.29999999999995" x2="2485" y2="307.29999999999995" stroke="#ffffff" stroke-width="1.2"/><text x="1999.5" y="312.29999999999995" text-anchor="end" font-family="Arial, Helvetica, sans-serif" font-size="15" font-weight="400" fill="#4D4D4D">80</text><line x1="2010.5" y1="159" x2="2485" y2="159" stroke="#ffffff" stroke-width="1.2"/><text x="1999.5" y="164" text-anchor="end" font-family="Arial, Helvetica, sans-serif" font-size="15" font-weight="400" fill="#4D4D4D">100</text><rect x="2026.3166666666668" y="790.9829216666667" width="24.506666666666664" height="109.5170783333333" fill="#0072B2"/><rect x="2184.483333333333" y="773.6244066666667" width="24.506666666666664" height="126.87559333333331" fill="#0072B2"/><rect x="2342.6499999999996" y="762.2374383333333" width="24.506666666666664" height="138.26256166666667" fill="#0072B2"/><rect x="2051.6233333333334" y="743.67275" width="24.506666666666664" height="156.82725000000005" fill="#D55E00"/><rect x="2209.79" y="729.7424366666667" width="24.506666666666664" height="170.75756333333334" fill="#D55E00"/><rect x="2367.9566666666665" y="725.9830316666666" width="24.506666666666664" height="174.51696833333335" fill="#D55E00"/><rect x="2076.9300000000003" y="728.7809583333333" width="24.506666666666664" height="171.71904166666673" fill="#009E73"/><rect x="2235.0966666666664" y="715.1892633333333" width="24.506666666666664" height="185.31073666666668" fill="#009E73"/><rect x="2393.263333333333" y="713.041385" width="24.506666666666664" height="187.458615" fill="#009E73"/><rect x="2102.2366666666667" y="720.7332116666666" width="24.506666666666664" height="179.76678833333335" fill="#CC79A7"/><rect x="2260.403333333333" y="706.3505833333334" width="24.506666666666664" height="194.14941666666664" fill="#CC79A7"/><rect x="2418.5699999999997" y="705.1098066666666" width="24.506666666666664" height="195.3901933333334" fill="#CC79A7"/><rect x="2127.5433333333335" y="749.99033" width="24.506666666666664" height="150.50967000000003" fill="#222222"/><rect x="2285.7099999999996" y="739.2039766666667" width="24.506666666666664" height="161.29602333333332" fill="#222222"/><rect x="2443.876666666666" y="737.9508416666666" width="24.506666666666664" height="162.54915833333337" fill="#222222"/><text x="2089.5833333333335" y="923.5" text-anchor="middle" font-family="Arial, Helvetica, sans-serif" font-size="15" font-weight="400" fill="#4D4D4D">0.05</text><text x="2247.75" y="923.5" text-anchor="middle" font-family="Arial, Helvetica, sans-serif" font-size="15" font-weight="400" fill="#4D4D4D">0.10</text><text x="2405.9166666666665" y="923.5" text-anchor="middle" font-family="Arial, Helvetica, sans-serif" font-size="15" font-weight="400" fill="#4D4D4D">0.15</text><text x="2247.75" y="146" text-anchor="middle" font-family="Arial, Helvetica, sans-serif" font-size="18" font-weight="400" fill="#1a1a1a">(D) Overdose allocation</text><text x="1954.5" y="529.75" text-anchor="middle" font-family="Arial, Helvetica, sans-serif" font-size="15" font-weight="400" fill="#333333" transform="rotate(-90 1954.5 529.75)">Percentage (%)</text><rect x="85" y="990.5" width="572.5" height="820.5" fill="#EBEBEB"/><line x1="161" y1="1766" x2="635.5" y2="1766" stroke="#ffffff" stroke-width="1.2"/><text x="150" y="1771" text-anchor="end" font-family="Arial, Helvetica, sans-serif" font-size="15" font-weight="400" fill="#4D4D4D">0.00</text><line x1="161" y1="1617.7" x2="635.5" y2="1617.7" stroke="#ffffff" stroke-width="1.2"/><text x="150" y="1622.7" text-anchor="end" font-family="Arial, Helvetica, sans-serif" font-size="15" font-weight="400" fill="#4D4D4D">6</text><line x1="161" y1="1469.4" x2="635.5" y2="1469.4" stroke="#ffffff" stroke-width="1.2"/><text x="150" y="1474.4" text-anchor="end" font-family="Arial, Helvetica, sans-serif" font-size="15" font-weight="400" fill="#4D4D4D">12</text><line x1="161" y1="1321.1" x2="635.5" y2="1321.1" stroke="#ffffff" stroke-width="1.2"/><text x="150" y="1326.1" text-anchor="end" font-family="Arial, Helvetica, sans-serif" font-size="15" font-weight="400" fill="#4D4D4D">18</text><line x1="161" y1="1172.8" x2="635.5" y2="1172.8" stroke="#ffffff" stroke-width="1.2"/><text x="150" y="1177.8" text-anchor="end" font-family="Arial, Helvetica, sans-serif" font-size="15" font-weight="400" fill="#4D4D4D">24</text><line x1="161" y1="1024.5" x2="635.5" y2="1024.5" stroke="#ffffff" stroke-width="1.2"/><text x="150" y="1029.5" text-anchor="end" font-family="Arial, Helvetica, sans-serif" font-size="15" font-weight="400" fill="#4D4D4D">30</text><rect x="176.81666666666666" y="1227.722905" width="24.506666666666664" height="538.2770949999999" fill="#0072B2"/><rect x="334.98333333333335" y="1226.922085" width="24.506666666666664" height="539.0779150000001" fill="#0072B2"/><rect x="493.1500000000001" y="1222.0306566666668" width="24.506666666666664" height="543.9693433333332" fill="#0072B2"/><rect x="202.12333333333333" y="1227.7624516666667" width="24.506666666666664" height="538.2375483333333" fill="#D55E00"/><rect x="360.29" y="1223.5729766666668" width="24.506666666666664" height="542.4270233333332" fill="#D55E00"/><rect x="518.4566666666667" y="1218.8990549999999" width="24.506666666666664" height="547.1009450000001" fill="#D55E00"/><rect x="227.43" y="1229.057605" width="24.506666666666664" height="536.942395" fill="#009E73"/><rect x="385.5966666666667" y="1223.585335" width="24.506666666666664" height="542.414665" fill="#009E73"/><rect x="543.7633333333334" y="1218.6518883333333" width="24.506666666666664" height="547.3481116666667" fill="#009E73"/><rect x="252.73666666666665" y="1228.4075566666666" width="24.506666666666664" height="537.5924433333334" fill="#CC79A7"/><rect x="410.9033333333333" y="1222.1962583333334" width="24.506666666666664" height="543.8037416666666" fill="#CC79A7"/><rect x="569.07" y="1217.2455100000002" width="24.506666666666664" height="548.7544899999998" fill="#CC79A7"/><rect x="278.0433333333333" y="1051.75754" width="24.506666666666664" height="714.2424599999999" fill="#222222"/><rect x="436.21000000000004" y="1044.8146283333335" width="24.506666666666664" height="721.1853716666665" fill="#222222"/><rect x="594.3766666666668" y="1043.1709700000001" width="24.506666666666664" height="722.8290299999999" fill="#222222"/><text x="240.08333333333331" y="1789" text-anchor="middle" font-family="Arial, Helvetica, sans-serif" font-size="15" font-weight="400" fill="#4D4D4D">0.05</text><text x="398.25" y="1789" text-anchor="middle" font-family="Arial, Helvetica, sans-serif" font-size="15" font-weight="400" fill="#4D4D4D">0.10</text><text x="556.4166666666667" y="1789" text-anchor="middle" font-family="Arial, Helvetica, sans-serif" font-size="15" font-weight="400" fill="#4D4D4D">0.15</text><text x="398.25" y="1011.5" text-anchor="middle" font-family="Arial, Helvetica, sans-serif" font-size="18" font-weight="400" fill="#1a1a1a">(E) Average sample size</text><text x="105" y="1395.25" text-anchor="middle" font-family="Arial, Helvetica, sans-serif" font-size="15" font-weight="400" fill="#333333" transform="rotate(-90 105 1395.25)">Patients</text><rect x="701.5" y="990.5" width="572.5" height="820.5" fill="#EBEBEB"/><line x1="777.5" y1="1766" x2="1252" y2="1766" stroke="#ffffff" stroke-width="1.2"/><text x="766.5" y="1771" text-anchor="end" font-family="Arial, Helvetica, sans-serif" font-size="15" font-weight="400" fill="#4D4D4D">0.00</text><line x1="777.5" y1="1617.7" x2="1252" y2="1617.7" stroke="#ffffff" stroke-width="1.2"/><text x="766.5" y="1622.7" text-anchor="end" font-family="Arial, Helvetica, sans-serif" font-size="15" font-weight="400" fill="#4D4D4D">48</text><line x1="777.5" y1="1469.4" x2="1252" y2="1469.4" stroke="#ffffff" stroke-width="1.2"/><text x="766.5" y="1474.4" text-anchor="end" font-family="Arial, Helvetica, sans-serif" font-size="15" font-weight="400" fill="#4D4D4D">96</text><line x1="777.5" y1="1321.1" x2="1252" y2="1321.1" stroke="#ffffff" stroke-width="1.2"/><text x="766.5" y="1326.1" text-anchor="end" font-family="Arial, Helvetica, sans-serif" font-size="15" font-weight="400" fill="#4D4D4D">144</text><line x1="777.5" y1="1172.8" x2="1252" y2="1172.8" stroke="#ffffff" stroke-width="1.2"/><text x="766.5" y="1177.8" text-anchor="end" font-family="Arial, Helvetica, sans-serif" font-size="15" font-weight="400" fill="#4D4D4D">192</text><line x1="777.5" y1="1024.5" x2="1252" y2="1024.5" stroke="#ffffff" stroke-width="1.2"/><text x="766.5" y="1029.5" text-anchor="end" font-family="Arial, Helvetica, sans-serif" font-size="15" font-weight="400" fill="#4D4D4D">240</text><rect x="793.3166666666667" y="1238.9935284523808" width="24.506666666666664" height="527.0064715476192" fill="#0072B2"/><rect x="951.4833333333333" y="1238.166711815476" width="24.506666666666664" height="527.833288184524" fill="#0072B2"/><rect x="1109.65" y="1233.2344127083334" width="24.506666666666664" height="532.7655872916666" fill="#0072B2"/><rect x="818.6233333333333" y="1238.9353560119048" width="24.506666666666664" height="527.0646439880952" fill="#D55E00"/><rect x="976.79" y="1234.7951377976192" width="24.506666666666664" height="531.2048622023808" fill="#D55E00"/><rect x="1134.9566666666667" y="1230.0560700595238" width="24.506666666666664" height="535.9439299404762" fill="#D55E00"/><rect x="843.9300000000001" y="1240.2177979166668" width="24.506666666666664" height="525.7822020833332" fill="#009E73"/><rect x="1002.0966666666667" y="1234.797565327381" width="24.506666666666664" height="531.2024346726189" fill="#009E73"/><rect x="1160.2633333333333" y="1229.795574047619" width="24.506666666666664" height="536.2044259523809" fill="#009E73"/><rect x="869.2366666666667" y="1239.5738404761905" width="24.506666666666664" height="526.4261595238095" fill="#CC79A7"/><rect x="1027.4033333333334" y="1233.4106955059524" width="24.506666666666664" height="532.5893044940476" fill="#CC79A7"/><rect x="1185.5700000000002" y="1228.3802800595238" width="24.506666666666664" height="537.6197199404762" fill="#CC79A7"/><rect x="894.5433333333334" y="1051.75754" width="24.506666666666664" height="714.2424599999999" fill="#222222"/><rect x="1052.71" y="1044.8146283333335" width="24.506666666666664" height="721.1853716666665" fill="#222222"/><rect x="1210.8766666666668" y="1043.1709700000001" width="24.506666666666664" height="722.8290299999999" fill="#222222"/><text x="856.5833333333334" y="1789" text-anchor="middle" font-family="Arial, Helvetica, sans-serif" font-size="15" font-weight="400" fill="#4D4D4D">0.05</text><text x="1014.75" y="1789" text-anchor="middle" font-family="Arial, Helvetica, sans-serif" font-size="15" font-weight="400" fill="#4D4D4D">0.10</text><text x="1172.9166666666667" y="1789" text-anchor="middle" font-family="Arial, Helvetica, sans-serif" font-size="15" font-weight="400" fill="#4D4D4D">0.15</text><text x="1014.75" y="1011.5" text-anchor="middle" font-family="Arial, Helvetica, sans-serif" font-size="18" font-weight="400" fill="#1a1a1a">(F) Average trial duration</text><text x="721.5" y="1395.25" text-anchor="middle" font-family="Arial, Helvetica, sans-serif" font-size="15" font-weight="400" fill="#333333" transform="rotate(-90 721.5 1395.25)">Weeks</text><rect x="1318" y="990.5" width="572.5" height="820.5" fill="#EBEBEB"/><line x1="1394" y1="1766" x2="1868.5" y2="1766" stroke="#ffffff" stroke-width="1.2"/><text x="1383" y="1771" text-anchor="end" font-family="Arial, Helvetica, sans-serif" font-size="15" font-weight="400" fill="#4D4D4D">0.00</text><line x1="1394" y1="1617.7" x2="1868.5" y2="1617.7" stroke="#ffffff" stroke-width="1.2"/><text x="1383" y="1622.7" text-anchor="end" font-family="Arial, Helvetica, sans-serif" font-size="15" font-weight="400" fill="#4D4D4D">2</text><line x1="1394" y1="1469.4" x2="1868.5" y2="1469.4" stroke="#ffffff" stroke-width="1.2"/><text x="1383" y="1474.4" text-anchor="end" font-family="Arial, Helvetica, sans-serif" font-size="15" font-weight="400" fill="#4D4D4D">4</text><line x1="1394" y1="1321.1" x2="1868.5" y2="1321.1" stroke="#ffffff" stroke-width="1.2"/><text x="1383" y="1326.1" text-anchor="end" font-family="Arial, Helvetica, sans-serif" font-size="15" font-weight="400" fill="#4D4D4D">6</text><line x1="1394" y1="1172.8" x2="1868.5" y2="1172.8" stroke="#ffffff" stroke-width="1.2"/><text x="1383" y="1177.8" text-anchor="end" font-family="Arial, Helvetica, sans-serif" font-size="15" font-weight="400" fill="#4D4D4D">8</text><line x1="1394" y1="1024.5" x2="1868.5" y2="1024.5" stroke="#ffffff" stroke-width="1.2"/><text x="1383" y="1029.5" text-anchor="end" font-family="Arial, Helvetica, sans-serif" font-size="15" font-weight="400" fill="#4D4D4D">10</text><rect x="1409.8166666666666" y="1134.5015250000001" width="24.506666666666664" height="631.4984749999999" fill="#0072B2"/><rect x="1567.9833333333333" y="1710.157635" width="24.506666666666664" height="55.84236499999997" fill="#0072B2"/><rect x="1726.15" y="1340.31968" width="24.506666666666664" height="425.68031999999994" fill="#0072B2"/><rect x="1435.1233333333332" y="1458.744645" width="24.506666666666664" height="307.255355" fill="#D55E00"/><rect x="1593.29" y="1702.63141" width="24.506666666666664" height="63.36859000000004" fill="#D55E00"/><rect x="1751.4566666666667" y="1443.18056" width="24.506666666666664" height="322.81944" fill="#D55E00"/><rect x="1460.4299999999998" y="1457.80294" width="24.506666666666664" height="308.19705999999996" fill="#009E73"/><rect x="1618.5966666666666" y="1698.04894" width="24.506666666666664" height="67.9510600000001" fill="#009E73"/><rect x="1776.7633333333333" y="1440.57048" width="24.506666666666664" height="325.4295199999999" fill="#009E73"/><rect x="1485.7366666666667" y="1412.33416" width="24.506666666666664" height="353.6658399999999" fill="#CC79A7"/><rect x="1643.9033333333334" y="1707.83674" width="24.506666666666664" height="58.16326000000004" fill="#CC79A7"/><rect x="1802.0700000000002" y="1425.59218" width="24.506666666666664" height="340.4078199999999" fill="#CC79A7"/><rect x="1511.0433333333333" y="1766" width="24.506666666666664" height="0" fill="#222222"/><rect x="1669.21" y="1766" width="24.506666666666664" height="0" fill="#222222"/><rect x="1827.3766666666668" y="1766" width="24.506666666666664" height="0" fill="#222222"/><text x="1473.0833333333333" y="1789" text-anchor="middle" font-family="Arial, Helvetica, sans-serif" font-size="15" font-weight="400" fill="#4D4D4D">0.05</text><text x="1631.25" y="1789" text-anchor="middle" font-family="Arial, Helvetica, sans-serif" font-size="15" font-weight="400" fill="#4D4D4D">0.10</text><text x="1789.4166666666667" y="1789" text-anchor="middle" font-family="Arial, Helvetica, sans-serif" font-size="15" font-weight="400" fill="#4D4D4D">0.15</text><text x="1631.25" y="1011.5" text-anchor="middle" font-family="Arial, Helvetica, sans-serif" font-size="18" font-weight="400" fill="#1a1a1a">(G) Absolute MTD-selection change vs oracle</text><text x="1338" y="1395.25" text-anchor="middle" font-family="Arial, Helvetica, sans-serif" font-size="15" font-weight="400" fill="#333333" transform="rotate(-90 1338 1395.25)">Percentage points</text><rect x="135" y="1878" width="17" height="17" fill="#0072B2"/><text x="159" y="1892" text-anchor="start" font-family="Arial, Helvetica, sans-serif" font-size="16" font-weight="400" fill="#222222">Discount CRM (0.15, 0.85)</text><rect x="413" y="1878" width="17" height="17" fill="#D55E00"/><text x="437" y="1892" text-anchor="start" font-family="Arial, Helvetica, sans-serif" font-size="16" font-weight="400" fill="#222222">Discount CRM (0.3, 0.7)</text><rect x="673.08" y="1878" width="17" height="17" fill="#009E73"/><text x="697.08" y="1892" text-anchor="start" font-family="Arial, Helvetica, sans-serif" font-size="16" font-weight="400" fill="#222222">Discount CRM (0.5, 0.5)</text><rect x="933.1600000000001" y="1878" width="17" height="17" fill="#CC79A7"/><text x="957.1600000000001" y="1892" text-anchor="start" font-family="Arial, Helvetica, sans-serif" font-size="16" font-weight="400" fill="#222222">Discount CRM (1, 1)</text><rect x="1157.4" y="1878" width="17" height="17" fill="#222222"/><text x="1181.4" y="1892" text-anchor="start" font-family="Arial, Helvetica, sans-serif" font-size="16" font-weight="400" fill="#222222">Oracle: r-fixed, alpha = 0</text></svg>