<svg xmlns="http://www.w3.org/2000/svg" width="2592" height="2016" viewBox="0 0 2592 2016"><rect width="100%" height="100%" fill="white"/><text x="1296" y="56" text-anchor="middle" font-family="Arial, Helvetica, sans-serif" font-size="34" font-weight="700" fill="#1a1a1a">Random scenarios - all methods and Discount CRM priors (alpha = 0.9)</text><text x="1296" y="88" text-anchor="middle" font-family="Arial, Helvetica, sans-serif" font-size="20" font-weight="400" fill="#4D4D4D">CFO excluded. Oracle = r-fixed CRM at alpha = 0; its duration is 56 days per administration.</text><rect x="85" y="125" width="572.5" height="820.5" fill="#EBEBEB"/><line x1="161" y1="900.5" x2="635.5" y2="900.5" stroke="#ffffff" stroke-width="1.2"/><text x="150" y="905.5" text-anchor="end" font-family="Arial, Helvetica, sans-serif" font-size="15" font-weight="400" fill="#4D4D4D">0.00</text><line x1="161" y1="752.2" x2="635.5" y2="752.2" stroke="#ffffff" stroke-width="1.2"/><text x="150" y="757.2" text-anchor="end" font-family="Arial, Helvetica, sans-serif" font-size="15" font-weight="400" fill="#4D4D4D">20</text><line x1="161" y1="603.9" x2="635.5" y2="603.9" stroke="#ffffff" stroke-width="1.2"/><text x="150" y="608.9" text-anchor="end" font-family="Arial, Helvetica, sans-serif" font-size="15" font-weight="400" fill="#4D4D4D">40</text><line x1="161" y1="455.6" x2="635.5" y2="455.6" stroke="#ffffff" stroke-width="1.2"/><text x="150" y="460.6" text-anchor="end" font-family="Arial, Helvetica, sans-serif" font-size="15" font-weight="400" fill="#4D4D4D">60</text><line x1="161" y1="307.29999999999995" x2="635.5" y2="307.29999999999995" stroke="#ffffff" stroke-width="1.2"/><text x="150" y="312.29999999999995" text-anchor="end" font-family="Arial, Helvetica, sans-serif" font-size="15" font-weight="400" fill="#4D4D4D">80</text><line x1="161" y1="159" x2="635.5" y2="159" stroke="#ffffff" stroke-width="1.2"/><text x="150" y="164" text-anchor="end" font-family="Arial, Helvetica, sans-serif" font-size="15" font-weight="400" fill="#4D4D4D">100</text><rect x="176.81666666666666" y="670.8848855" width="15.016666666666666" height="229.6151145" fill="#56B4E9"/><rect x="334.98333333333335" y="534.6550225" width="15.016666666666666" height="365.8449775" fill="#56B4E9"/><rect x="493.1500000000001" y="450.234506" width="15.016666666666666" height="450.265494" fill="#56B4E9"/><rect x="192.63333333333333" y="654.049128" width="15.016666666666666" height="246.450872" fill="#E69F00"/><rect x="350.8" y="520.3485215000001" width="15.016666666666666" height="380.15147849999994" fill="#E69F00"/><rect x="508.96666666666675" y="449.540462" width="15.016666666666666" height="450.959538" fill="#E69F00"/><rect x="208.45" y="619.42701" width="15.016666666666666" height="281.07299" fill="#7F3C8D"/><rect x="366.6166666666667" y="501.006494" width="15.016666666666666" height="399.493506" fill="#7F3C8D"/><rect x="524.7833333333334" y="432.68097650000004" width="15.016666666666666" height="467.81902349999996" fill="#7F3C8D"/><rect x="224.26666666666665" y="657.7143625" width="15.016666666666666" height="242.7856375" fill="#0072B2"/><rect x="382.43333333333334" y="532.999253" width="15.016666666666666" height="367.50074700000005" fill="#0072B2"/><rect x="540.6000000000001" y="463.91963000000004" width="15.016666666666666" height="436.58036999999996" fill="#0072B2"/><rect x="240.08333333333331" y="649.184888" width="15.016666666666666" height="251.315112" fill="#D55E00"/><rect x="398.25" y="533.7162834999999" width="15.016666666666666" height="366.7837165000001" fill="#D55E00"/><rect x="556.4166666666667" y="470.73994700000003" width="15.016666666666666" height="429.76005299999997" fill="#D55E00"/><rect x="255.89999999999998" y="647.1361234999999" width="15.016666666666666" height="253.36387650000006" fill="#009E73"/><rect x="414.06666666666666" y="534.1745305" width="15.016666666666666" height="366.32546950000005" fill="#009E73"/><rect x="572.2333333333335" y="472.74570450000004" width="15.016666666666666" height="427.75429549999996" fill="#009E73"/><rect x="271.7166666666667" y="643.39229" width="15.016666666666666" height="257.10771" fill="#CC79A7"/><rect x="429.8833333333333" y="533.1957505" width="15.016666666666666" height="367.30424949999997" fill="#CC79A7"/><rect x="588.0500000000001" y="474.27319450000005" width="15.016666666666666" height="426.22680549999995" fill="#CC79A7"/><rect x="287.5333333333333" y="644.5601525" width="15.016666666666666" height="255.93984750000004" fill="#222222"/><rect x="445.70000000000005" y="527.387581" width="15.016666666666666" height="373.11241900000005" fill="#222222"/><rect x="603.8666666666668" y="459.96372750000006" width="15.016666666666666" height="440.53627249999994" fill="#222222"/><text x="240.08333333333331" y="923.5" text-anchor="middle" font-family="Arial, Helvetica, sans-serif" font-size="15" font-weight="400" fill="#4D4D4D">0.05</text><text x="398.25" y="923.5" text-anchor="middle" font-family="Arial, Helvetica, sans-serif" font-size="15" font-weight="400" fill="#4D4D4D">0.10</text><text x="556.4166666666667" y="923.5" text-anchor="middle" font-family="Arial, Helvetica, sans-serif" font-size="15" font-weight="400" fill="#4D4D4D">0.15</text><text x="398.25" y="146" text-anchor="middle" font-family="Arial, Helvetica, sans-serif" font-size="18" font-weight="400" fill="#1a1a1a">(A) MTD selection</text><text x="105" y="529.75" text-anchor="middle" font-family="Arial, Helvetica, sans-serif" font-size="15" font-weight="400" fill="#333333" transform="rotate(-90 105 529.75)">Percentage (%)</text><rect x="701.5" y="125" width="572.5" height="820.5" fill="#EBEBEB"/><line x1="777.5" y1="900.5" x2="1252" y2="900.5" stroke="#ffffff" stroke-width="1.2"/><text x="766.5" y="905.5" text-anchor="end" font-family="Arial, Helvetica, sans-serif" font-size="15" font-weight="400" fill="#4D4D4D">0.00</text><line x1="777.5" y1="752.2" x2="1252" y2="752.2" stroke="#ffffff" stroke-width="1.2"/><text x="766.5" y="757.2" text-anchor="end" font-family="Arial, Helvetica, sans-serif" font-size="15" font-weight="400" fill="#4D4D4D">20</text><line x1="777.5" y1="603.9" x2="1252" y2="603.9" stroke="#ffffff" stroke-width="1.2"/><text x="766.5" y="608.9" text-anchor="end" font-family="Arial, Helvetica, sans-serif" font-size="15" font-weight="400" fill="#4D4D4D">40</text><line x1="777.5" y1="455.6" x2="1252" y2="455.6" stroke="#ffffff" stroke-width="1.2"/><text x="766.5" y="460.6" text-anchor="end" font-family="Arial, Helvetica, sans-serif" font-size="15" font-weight="400" fill="#4D4D4D">60</text><line x1="777.5" y1="307.29999999999995" x2="1252" y2="307.29999999999995" stroke="#ffffff" stroke-width="1.2"/><text x="766.5" y="312.29999999999995" text-anchor="end" font-family="Arial, Helvetica, sans-serif" font-size="15" font-weight="400" fill="#4D4D4D">80</text><line x1="777.5" y1="159" x2="1252" y2="159" stroke="#ffffff" stroke-width="1.2"/><text x="766.5" y="164" text-anchor="end" font-family="Arial, Helvetica, sans-serif" font-size="15" font-weight="400" fill="#4D4D4D">100</text><rect x="793.3166666666667" y="699.4101433333334" width="15.016666666666666" height="201.0898566666666" fill="#56B4E9"/><rect x="951.4833333333333" y="617.2643016666666" width="15.016666666666666" height="283.2356983333334" fill="#56B4E9"/><rect x="1109.65" y="564.2544666666668" width="15.016666666666666" height="336.24553333333324" fill="#56B4E9"/><rect x="809.1333333333334" y="691.6046200000001" width="15.016666666666666" height="208.89537999999993" fill="#E69F00"/><rect x="967.3000000000001" y="612.5780216666667" width="15.016666666666666" height="287.9219783333333" fill="#E69F00"/><rect x="1125.4666666666667" y="568.0682483333334" width="15.016666666666666" height="332.4317516666666" fill="#E69F00"/><rect x="824.95" y="675.506655" width="15.016666666666666" height="224.99334499999998" fill="#7F3C8D"/><rect x="983.1166666666667" y="605.004835" width="15.016666666666666" height="295.49516500000004" fill="#7F3C8D"/><rect x="1141.2833333333335" y="564.3286166666667" width="15.016666666666666" height="336.1713833333333" fill="#7F3C8D"/><rect x="840.7666666666668" y="695.2280833333333" width="15.016666666666666" height="205.2719166666667" fill="#0072B2"/><rect x="998.9333333333334" y="620.4132050000001" width="15.016666666666666" height="280.08679499999994" fill="#0072B2"/><rect x="1157.1000000000001" y="575.70817" width="15.016666666666666" height="324.79183" fill="#0072B2"/><rect x="856.5833333333334" y="693.3496166666666" width="15.016666666666666" height="207.15038333333337" fill="#D55E00"/><rect x="1014.75" y="627.2720800000001" width="15.016666666666666" height="273.2279199999999" fill="#D55E00"/><rect x="1172.9166666666667" y="588.7635133333333" width="15.016666666666666" height="311.7364866666667" fill="#D55E00"/><rect x="872.4000000000001" y="693.6239716666666" width="15.016666666666666" height="206.87602833333335" fill="#009E73"/><rect x="1030.5666666666666" y="630.3245883333334" width="15.016666666666666" height="270.1754116666666" fill="#009E73"/><rect x="1188.7333333333333" y="593.7538083333333" width="15.016666666666666" height="306.74619166666673" fill="#009E73"/><rect x="888.2166666666667" y="692.2892716666667" width="15.016666666666666" height="208.21072833333335" fill="#CC79A7"/><rect x="1046.3833333333334" y="631.09822" width="15.016666666666666" height="269.40178000000003" fill="#CC79A7"/><rect x="1204.5500000000002" y="596.3342283333333" width="15.016666666666666" height="304.1657716666667" fill="#CC79A7"/><rect x="904.0333333333334" y="692.39061" width="15.016666666666666" height="208.10938999999996" fill="#222222"/><rect x="1062.2" y="624.7114333333334" width="15.016666666666666" height="275.7885666666666" fill="#222222"/><rect x="1220.3666666666668" y="582.196295" width="15.016666666666666" height="318.30370500000004" fill="#222222"/><text x="856.5833333333334" y="923.5" text-anchor="middle" font-family="Arial, Helvetica, sans-serif" font-size="15" font-weight="400" fill="#4D4D4D">0.05</text><text x="1014.75" y="923.5" text-anchor="middle" font-family="Arial, Helvetica, sans-serif" font-size="15" font-weight="400" fill="#4D4D4D">0.10</text><text x="1172.9166666666667" y="923.5" text-anchor="middle" font-family="Arial, Helvetica, sans-serif" font-size="15" font-weight="400" fill="#4D4D4D">0.15</text><text x="1014.75" y="146" text-anchor="middle" font-family="Arial, Helvetica, sans-serif" font-size="18" font-weight="400" fill="#1a1a1a">(B) MTD allocation</text><text x="721.5" y="529.75" text-anchor="middle" font-family="Arial, Helvetica, sans-serif" font-size="15" font-weight="400" fill="#333333" transform="rotate(-90 721.5 529.75)">Percentage (%)</text><rect x="1318" y="125" width="572.5" height="820.5" fill="#EBEBEB"/><line x1="1394" y1="900.5" x2="1868.5" y2="900.5" stroke="#ffffff" stroke-width="1.2"/><text x="1383" y="905.5" text-anchor="end" font-family="Arial, Helvetica, sans-serif" font-size="15" font-weight="400" fill="#4D4D4D">0.00</text><line x1="1394" y1="752.2" x2="1868.5" y2="752.2" stroke="#ffffff" stroke-width="1.2"/><text x="1383" y="757.2" text-anchor="end" font-family="Arial, Helvetica, sans-serif" font-size="15" font-weight="400" fill="#4D4D4D">20</text><line x1="1394" y1="603.9" x2="1868.5" y2="603.9" stroke="#ffffff" stroke-width="1.2"/><text x="1383" y="608.9" text-anchor="end" font-family="Arial, Helvetica, sans-serif" font-size="15" font-weight="400" fill="#4D4D4D">40</text><line x1="1394" y1="455.6" x2="1868.5" y2="455.6" stroke="#ffffff" stroke-width="1.2"/><text x="1383" y="460.6" text-anchor="end" font-family="Arial, Helvetica, sans-serif" font-size="15" font-weight="400" fill="#4D4D4D">60</text><line x1="1394" y1="307.29999999999995" x2="1868.5" y2="307.29999999999995" stroke="#ffffff" stroke-width="1.2"/><text x="1383" y="312.29999999999995" text-anchor="end" font-family="Arial, Helvetica, sans-serif" font-size="15" font-weight="400" fill="#4D4D4D">80</text><line x1="1394" y1="159" x2="1868.5" y2="159" stroke="#ffffff" stroke-width="1.2"/><text x="1383" y="164" text-anchor="end" font-family="Arial, Helvetica, sans-serif" font-size="15" font-weight="400" fill="#4D4D4D">100</text><rect x="1409.8166666666666" y="834.5042755" width="15.016666666666666" height="65.99572450000005" fill="#56B4E9"/><rect x="1567.9833333333333" y="826.218013" width="15.016666666666666" height="74.28198699999996" fill="#56B4E9"/><rect x="1726.15" y="823.1533935" width="15.016666666666666" height="77.34660650000001" fill="#56B4E9"/><rect x="1425.6333333333332" y="798.8292275" width="15.016666666666666" height="101.6707725" fill="#E69F00"/><rect x="1583.8" y="787.311508" width="15.016666666666666" height="113.188492" fill="#E69F00"/><rect x="1741.9666666666667" y="787.5658425" width="15.016666666666666" height="112.93415749999997" fill="#E69F00"/><rect x="1441.45" y="712.655805" width="15.016666666666666" height="187.844195" fill="#7F3C8D"/><rect x="1599.6166666666668" y="723.9925985" width="15.016666666666666" height="176.50740150000001" fill="#7F3C8D"/><rect x="1757.7833333333335" y="750.143079" width="15.016666666666666" height="150.35692100000006" fill="#7F3C8D"/><rect x="1457.2666666666667" y="790.729823" width="15.016666666666666" height="109.77017699999999" fill="#0072B2"/><rect x="1615.4333333333334" y="787.2796235" width="15.016666666666666" height="113.22037650000004" fill="#0072B2"/><rect x="1773.6000000000001" y="789.8481795" width="15.016666666666666" height="110.65182049999999" fill="#0072B2"/><rect x="1473.0833333333333" y="722.9218725000001" width="15.016666666666666" height="177.57812749999994" fill="#D55E00"/><rect x="1631.25" y="733.3532945" width="15.016666666666666" height="167.14670550000005" fill="#D55E00"/><rect x="1789.4166666666667" y="751.230118" width="15.016666666666666" height="149.26988200000005" fill="#D55E00"/><rect x="1488.8999999999999" y="699.620235" width="15.016666666666666" height="200.87976500000002" fill="#009E73"/><rect x="1647.0666666666666" y="714.3130575" width="15.016666666666666" height="186.1869425" fill="#009E73"/><rect x="1805.2333333333333" y="736.846501" width="15.016666666666666" height="163.653499" fill="#009E73"/><rect x="1504.7166666666667" y="685.73194" width="15.016666666666666" height="214.76806" fill="#CC79A7"/><rect x="1662.8833333333334" y="700.9482615" width="15.016666666666666" height="199.55173850000006" fill="#CC79A7"/><rect x="1821.0500000000002" y="726.327582" width="15.016666666666666" height="174.172418" fill="#CC79A7"/><rect x="1520.5333333333333" y="713.1147935" width="15.016666666666666" height="187.38520649999998" fill="#222222"/><rect x="1678.7" y="723.8116725" width="15.016666666666666" height="176.6883275" fill="#222222"/><rect x="1836.8666666666668" y="746.785567" width="15.016666666666666" height="153.71443299999999" fill="#222222"/><text x="1473.0833333333333" y="923.5" text-anchor="middle" font-family="Arial, Helvetica, sans-serif" font-size="15" font-weight="400" fill="#4D4D4D">0.05</text><text x="1631.25" y="923.5" text-anchor="middle" font-family="Arial, Helvetica, sans-serif" font-size="15" font-weight="400" fill="#4D4D4D">0.10</text><text x="1789.4166666666667" y="923.5" text-anchor="middle" font-family="Arial, Helvetica, sans-serif" font-size="15" font-weight="400" fill="#4D4D4D">0.15</text><text x="1631.25" y="146" text-anchor="middle" font-family="Arial, Helvetica, sans-serif" font-size="18" font-weight="400" fill="#1a1a1a">(C) Overdose selection</text><text x="1338" y="529.75" text-anchor="middle" font-family="Arial, Helvetica, sans-serif" font-size="15" font-weight="400" fill="#333333" transform="rotate(-90 1338 529.75)">Percentage (%)</text><rect x="1934.5" y="125" width="572.5" height="820.5" fill="#EBEBEB"/><line x1="2010.5" y1="900.5" x2="2485" y2="900.5" stroke="#ffffff" stroke-width="1.2"/><text x="1999.5" y="905.5" text-anchor="end" font-family="Arial, Helvetica, sans-serif" font-size="15" font-weight="400" fill="#4D4D4D">0.00</text><line x1="2010.5" y1="752.2" x2="2485" y2="752.2" stroke="#ffffff" stroke-width="1.2"/><text x="1999.5" y="757.2" text-anchor="end" font-family="Arial, Helvetica, sans-serif" font-size="15" font-weight="400" fill="#4D4D4D">20</text><line x1="2010.5" y1="603.9" x2="2485" y2="603.9" stroke="#ffffff" stroke-width="1.2"/><text x="1999.5" y="608.9" text-anchor="end" font-family="Arial, Helvetica, sans-serif" font-size="15" font-weight="400" fill="#4D4D4D">40</text><line x1="2010.5" y1="455.6" x2="2485" y2="455.6" stroke="#ffffff" stroke-width="1.2"/><text x="1999.5" y="460.6" text-anchor="end" font-family="Arial, Helvetica, sans-serif" font-size="15" font-weight="400" fill="#4D4D4D">60</text><line x1="2010.5" y1="307.29999999999995" x2="2485" y2="307.29999999999995" stroke="#ffffff" stroke-width="1.2"/><text x="1999.5" y="312.29999999999995" text-anchor="end" font-family="Arial, Helvetica, sans-serif" font-size="15" font-weight="400" fill="#4D4D4D">80</text><line x1="2010.5" y1="159" x2="2485" y2="159" stroke="#ffffff" stroke-width="1.2"/><text x="1999.5" y="164" text-anchor="end" font-family="Arial, Helvetica, sans-serif" font-size="15" font-weight="400" fill="#4D4D4D">100</text><rect x="2026.3166666666668" y="825.5738966666667" width="15.016666666666666" height="74.92610333333334" fill="#56B4E9"/><rect x="2184.483333333333" y="808.1560616666667" width="15.016666666666666" height="92.34393833333331" fill="#56B4E9"/><rect x="2342.6499999999996" y="793.6523216666667" width="15.016666666666666" height="106.8476783333333" fill="#56B4E9"/><rect x="2042.1333333333334" y="801.0253033333333" width="15.016666666666666" height="99.47469666666666" fill="#E69F00"/><rect x="2200.2999999999997" y="778.5405516666666" width="15.016666666666666" height="121.9594483333334" fill="#E69F00"/><rect x="2358.4666666666662" y="763.5943833333333" width="15.016666666666666" height="136.90561666666667" fill="#E69F00"/><rect x="2057.9500000000003" y="737.5973933333333" width="15.016666666666666" height="162.90260666666666" fill="#7F3C8D"/><rect x="2216.1166666666663" y="727.0606783333333" width="15.016666666666666" height="173.43932166666673" fill="#7F3C8D"/><rect x="2374.283333333333" y="728.7636566666667" width="15.016666666666666" height="171.73634333333325" fill="#7F3C8D"/><rect x="2073.766666666667" y="790.9829216666667" width="15.016666666666666" height="109.5170783333333" fill="#0072B2"/><rect x="2231.933333333333" y="773.6244066666667" width="15.016666666666666" height="126.87559333333331" fill="#0072B2"/><rect x="2390.0999999999995" y="762.2374383333333" width="15.016666666666666" height="138.26256166666667" fill="#0072B2"/><rect x="2089.5833333333335" y="743.67275" width="15.016666666666666" height="156.82725000000005" fill="#D55E00"/><rect x="2247.75" y="729.7424366666667" width="15.016666666666666" height="170.75756333333334" fill="#D55E00"/><rect x="2405.9166666666665" y="725.9830316666666" width="15.016666666666666" height="174.51696833333335" fill="#D55E00"/><rect x="2105.4" y="728.7809583333333" width="15.016666666666666" height="171.71904166666673" fill="#009E73"/><rect x="2263.5666666666666" y="715.1892633333333" width="15.016666666666666" height="185.31073666666668" fill="#009E73"/><rect x="2421.733333333333" y="713.041385" width="15.016666666666666" height="187.458615" fill="#009E73"/><rect x="2121.2166666666667" y="720.7332116666666" width="15.016666666666666" height="179.76678833333335" fill="#CC79A7"/><rect x="2279.383333333333" y="706.3505833333334" width="15.016666666666666" height="194.14941666666664" fill="#CC79A7"/><rect x="2437.5499999999997" y="705.1098066666666" width="15.016666666666666" height="195.3901933333334" fill="#CC79A7"/><rect x="2137.0333333333333" y="749.99033" width="15.016666666666666" height="150.50967000000003" fill="#222222"/><rect x="2295.2" y="739.2039766666667" width="15.016666666666666" height="161.29602333333332" fill="#222222"/><rect x="2453.3666666666663" y="737.9508416666666" width="15.016666666666666" height="162.54915833333337" fill="#222222"/><text x="2089.5833333333335" y="923.5" text-anchor="middle" font-family="Arial, Helvetica, sans-serif" font-size="15" font-weight="400" fill="#4D4D4D">0.05</text><text x="2247.75" y="923.5" text-anchor="middle" font-family="Arial, Helvetica, sans-serif" font-size="15" font-weight="400" fill="#4D4D4D">0.10</text><text x="2405.9166666666665" y="923.5" text-anchor="middle" font-family="Arial, Helvetica, sans-serif" font-size="15" font-weight="400" fill="#4D4D4D">0.15</text><text x="2247.75" y="146" text-anchor="middle" font-family="Arial, Helvetica, sans-serif" font-size="18" font-weight="400" fill="#1a1a1a">(D) Overdose allocation</text><text x="1954.5" y="529.75" text-anchor="middle" font-family="Arial, Helvetica, sans-serif" font-size="15" font-weight="400" fill="#333333" transform="rotate(-90 1954.5 529.75)">Percentage (%)</text><rect x="85" y="990.5" width="572.5" height="820.5" fill="#EBEBEB"/><line x1="161" y1="1766" x2="635.5" y2="1766" stroke="#ffffff" stroke-width="1.2"/><text x="150" y="1771" text-anchor="end" font-family="Arial, Helvetica, sans-serif" font-size="15" font-weight="400" fill="#4D4D4D">0.00</text><line x1="161" y1="1617.7" x2="635.5" y2="1617.7" stroke="#ffffff" stroke-width="1.2"/><text x="150" y="1622.7" text-anchor="end" font-family="Arial, Helvetica, sans-serif" font-size="15" font-weight="400" fill="#4D4D4D">6</text><line x1="161" y1="1469.4" x2="635.5" y2="1469.4" stroke="#ffffff" stroke-width="1.2"/><text x="150" y="1474.4" text-anchor="end" font-family="Arial, Helvetica, sans-serif" font-size="15" font-weight="400" fill="#4D4D4D">12</text><line x1="161" y1="1321.1" x2="635.5" y2="1321.1" stroke="#ffffff" stroke-width="1.2"/><text x="150" y="1326.1" text-anchor="end" font-family="Arial, Helvetica, sans-serif" font-size="15" font-weight="400" fill="#4D4D4D">18</text><line x1="161" y1="1172.8" x2="635.5" y2="1172.8" stroke="#ffffff" stroke-width="1.2"/><text x="150" y="1177.8" text-anchor="end" font-family="Arial, Helvetica, sans-serif" font-size="15" font-weight="400" fill="#4D4D4D">24</text><line x1="161" y1="1024.5" x2="635.5" y2="1024.5" stroke="#ffffff" stroke-width="1.2"/><text x="150" y="1029.5" text-anchor="end" font-family="Arial, Helvetica, sans-serif" font-size="15" font-weight="400" fill="#4D4D4D">30</text><rect x="176.81666666666666" y="1218.4220233333333" width="15.016666666666666" height="547.5779766666667" fill="#56B4E9"/><rect x="334.98333333333335" y="1222.4607266666667" width="15.016666666666666" height="543.5392733333333" fill="#56B4E9"/><rect x="493.1500000000001" y="1218.4665133333333" width="15.016666666666666" height="547.5334866666667" fill="#56B4E9"/><rect x="192.63333333333333" y="1221.9342616666668" width="15.016666666666666" height="544.0657383333332" fill="#E69F00"/><rect x="350.8" y="1220.8788599999998" width="15.016666666666666" height="545.1211400000002" fill="#E69F00"/><rect x="508.96666666666675" y="1215.8465466666667" width="15.016666666666666" height="550.1534533333333" fill="#E69F00"/><rect x="208.45" y="1212.195895" width="15.016666666666666" height="553.8041049999999" fill="#7F3C8D"/><rect x="366.6166666666667" y="1207.5812933333332" width="15.016666666666666" height="558.4187066666668" fill="#7F3C8D"/><rect x="524.7833333333334" y="1202.4698866666668" width="15.016666666666666" height="563.5301133333332" fill="#7F3C8D"/><rect x="224.26666666666665" y="1227.722905" width="15.016666666666666" height="538.2770949999999" fill="#0072B2"/><rect x="382.43333333333334" y="1226.922085" width="15.016666666666666" height="539.0779150000001" fill="#0072B2"/><rect x="540.6000000000001" y="1222.0306566666668" width="15.016666666666666" height="543.9693433333332" fill="#0072B2"/><rect x="240.08333333333331" y="1227.7624516666667" width="15.016666666666666" height="538.2375483333333" fill="#D55E00"/><rect x="398.25" y="1223.5729766666668" width="15.016666666666666" height="542.4270233333332" fill="#D55E00"/><rect x="556.4166666666667" y="1218.8990549999999" width="15.016666666666666" height="547.1009450000001" fill="#D55E00"/><rect x="255.89999999999998" y="1229.057605" width="15.016666666666666" height="536.942395" fill="#009E73"/><rect x="414.06666666666666" y="1223.585335" width="15.016666666666666" height="542.414665" fill="#009E73"/><rect x="572.2333333333335" y="1218.6518883333333" width="15.016666666666666" height="547.3481116666667" fill="#009E73"/><rect x="271.7166666666667" y="1228.4075566666666" width="15.016666666666666" height="537.5924433333334" fill="#CC79A7"/><rect x="429.8833333333333" y="1222.1962583333334" width="15.016666666666666" height="543.8037416666666" fill="#CC79A7"/><rect x="588.0500000000001" y="1217.2455100000002" width="15.016666666666666" height="548.7544899999998" fill="#CC79A7"/><rect x="287.5333333333333" y="1051.75754" width="15.016666666666666" height="714.2424599999999" fill="#222222"/><rect x="445.70000000000005" y="1044.8146283333335" width="15.016666666666666" height="721.1853716666665" fill="#222222"/><rect x="603.8666666666668" y="1043.1709700000001" width="15.016666666666666" height="722.8290299999999" fill="#222222"/><text x="240.08333333333331" y="1789" text-anchor="middle" font-family="Arial, Helvetica, sans-serif" font-size="15" font-weight="400" fill="#4D4D4D">0.05</text><text x="398.25" y="1789" text-anchor="middle" font-family="Arial, Helvetica, sans-serif" font-size="15" font-weight="400" fill="#4D4D4D">0.10</text><text x="556.4166666666667" y="1789" text-anchor="middle" font-family="Arial, Helvetica, sans-serif" font-size="15" font-weight="400" fill="#4D4D4D">0.15</text><text x="398.25" y="1011.5" text-anchor="middle" font-family="Arial, Helvetica, sans-serif" font-size="18" font-weight="400" fill="#1a1a1a">(E) Average sample size</text><text x="105" y="1395.25" text-anchor="middle" font-family="Arial, Helvetica, sans-serif" font-size="15" font-weight="400" fill="#333333" transform="rotate(-90 105 1395.25)">Patients</text><rect x="701.5" y="990.5" width="572.5" height="820.5" fill="#EBEBEB"/><line x1="777.5" y1="1766" x2="1252" y2="1766" stroke="#ffffff" stroke-width="1.2"/><text x="766.5" y="1771" text-anchor="end" font-family="Arial, Helvetica, sans-serif" font-size="15" font-weight="400" fill="#4D4D4D">0.00</text><line x1="777.5" y1="1617.7" x2="1252" y2="1617.7" stroke="#ffffff" stroke-width="1.2"/><text x="766.5" y="1622.7" text-anchor="end" font-family="Arial, Helvetica, sans-serif" font-size="15" font-weight="400" fill="#4D4D4D">48</text><line x1="777.5" y1="1469.4" x2="1252" y2="1469.4" stroke="#ffffff" stroke-width="1.2"/><text x="766.5" y="1474.4" text-anchor="end" font-family="Arial, Helvetica, sans-serif" font-size="15" font-weight="400" fill="#4D4D4D">96</text><line x1="777.5" y1="1321.1" x2="1252" y2="1321.1" stroke="#ffffff" stroke-width="1.2"/><text x="766.5" y="1326.1" text-anchor="end" font-family="Arial, Helvetica, sans-serif" font-size="15" font-weight="400" fill="#4D4D4D">144</text><line x1="777.5" y1="1172.8" x2="1252" y2="1172.8" stroke="#ffffff" stroke-width="1.2"/><text x="766.5" y="1177.8" text-anchor="end" font-family="Arial, Helvetica, sans-serif" font-size="15" font-weight="400" fill="#4D4D4D">192</text><line x1="777.5" y1="1024.5" x2="1252" y2="1024.5" stroke="#ffffff" stroke-width="1.2"/><text x="766.5" y="1029.5" text-anchor="end" font-family="Arial, Helvetica, sans-serif" font-size="15" font-weight="400" fill="#4D4D4D">240</text><rect x="793.3166666666667" y="1229.7046520238096" width="15.016666666666666" height="536.2953479761904" fill="#56B4E9"/><rect x="951.4833333333333" y="1233.7016901190477" width="15.016666666666666" height="532.2983098809523" fill="#56B4E9"/><rect x="1109.65" y="1229.6339447023809" width="15.016666666666666" height="536.3660552976191" fill="#56B4E9"/><rect x="809.1333333333334" y="1233.180698095238" width="15.016666666666666" height="532.8193019047619" fill="#E69F00"/><rect x="967.3000000000001" y="1232.140214702381" width="15.016666666666666" height="533.859785297619" fill="#E69F00"/><rect x="1125.4666666666667" y="1227.0448297321427" width="15.016666666666666" height="538.9551702678573" fill="#E69F00"/><rect x="824.95" y="1223.548436547619" width="15.016666666666666" height="542.4515634523809" fill="#7F3C8D"/><rect x="983.1166666666667" y="1218.8844898214288" width="15.016666666666666" height="547.1155101785712" fill="#7F3C8D"/><rect x="1141.2833333333335" y="1213.6753199107143" width="15.016666666666666" height="552.3246800892857" fill="#7F3C8D"/><rect x="840.7666666666668" y="1238.9935284523808" width="15.016666666666666" height="527.0064715476192" fill="#0072B2"/><rect x="998.9333333333334" y="1238.166711815476" width="15.016666666666666" height="527.833288184524" fill="#0072B2"/><rect x="1157.1000000000001" y="1233.2344127083334" width="15.016666666666666" height="532.7655872916666" fill="#0072B2"/><rect x="856.5833333333334" y="1238.9353560119048" width="15.016666666666666" height="527.0646439880952" fill="#D55E00"/><rect x="1014.75" y="1234.7951377976192" width="15.016666666666666" height="531.2048622023808" fill="#D55E00"/><rect x="1172.9166666666667" y="1230.0560700595238" width="15.016666666666666" height="535.9439299404762" fill="#D55E00"/><rect x="872.4000000000001" y="1240.2177979166668" width="15.016666666666666" height="525.7822020833332" fill="#009E73"/><rect x="1030.5666666666666" y="1234.797565327381" width="15.016666666666666" height="531.2024346726189" fill="#009E73"/><rect x="1188.7333333333333" y="1229.795574047619" width="15.016666666666666" height="536.2044259523809" fill="#009E73"/><rect x="888.2166666666667" y="1239.5738404761905" width="15.016666666666666" height="526.4261595238095" fill="#CC79A7"/><rect x="1046.3833333333334" y="1233.4106955059524" width="15.016666666666666" height="532.5893044940476" fill="#CC79A7"/><rect x="1204.5500000000002" y="1228.3802800595238" width="15.016666666666666" height="537.6197199404762" fill="#CC79A7"/><rect x="904.0333333333334" y="1051.75754" width="15.016666666666666" height="714.2424599999999" fill="#222222"/><rect x="1062.2" y="1044.8146283333335" width="15.016666666666666" height="721.1853716666665" fill="#222222"/><rect x="1220.3666666666668" y="1043.1709700000001" width="15.016666666666666" height="722.8290299999999" fill="#222222"/><text x="856.5833333333334" y="1789" text-anchor="middle" font-family="Arial, Helvetica, sans-serif" font-size="15" font-weight="400" fill="#4D4D4D">0.05</text><text x="1014.75" y="1789" text-anchor="middle" font-family="Arial, Helvetica, sans-serif" font-size="15" font-weight="400" fill="#4D4D4D">0.10</text><text x="1172.9166666666667" y="1789" text-anchor="middle" font-family="Arial, Helvetica, sans-serif" font-size="15" font-weight="400" fill="#4D4D4D">0.15</text><text x="1014.75" y="1011.5" text-anchor="middle" font-family="Arial, Helvetica, sans-serif" font-size="18" font-weight="400" fill="#1a1a1a">(F) Average trial duration</text><text x="721.5" y="1395.25" text-anchor="middle" font-family="Arial, Helvetica, sans-serif" font-size="15" font-weight="400" fill="#333333" transform="rotate(-90 721.5 1395.25)">Weeks</text><rect x="1318" y="990.5" width="572.5" height="820.5" fill="#EBEBEB"/><line x1="1394" y1="1766" x2="1868.5" y2="1766" stroke="#ffffff" stroke-width="1.2"/><text x="1383" y="1771" text-anchor="end" font-family="Arial, Helvetica, sans-serif" font-size="15" font-weight="400" fill="#4D4D4D">0.00</text><line x1="1394" y1="1617.7" x2="1868.5" y2="1617.7" stroke="#ffffff" stroke-width="1.2"/><text x="1383" y="1622.7" text-anchor="end" font-family="Arial, Helvetica, sans-serif" font-size="15" font-weight="400" fill="#4D4D4D">3</text><line x1="1394" y1="1469.4" x2="1868.5" y2="1469.4" stroke="#ffffff" stroke-width="1.2"/><text x="1383" y="1474.4" text-anchor="end" font-family="Arial, Helvetica, sans-serif" font-size="15" font-weight="400" fill="#4D4D4D">6</text><line x1="1394" y1="1321.1" x2="1868.5" y2="1321.1" stroke="#ffffff" stroke-width="1.2"/><text x="1383" y="1326.1" text-anchor="end" font-family="Arial, Helvetica, sans-serif" font-size="15" font-weight="400" fill="#4D4D4D">8</text><line x1="1394" y1="1172.8000000000002" x2="1868.5" y2="1172.8000000000002" stroke="#ffffff" stroke-width="1.2"/><text x="1383" y="1177.8000000000002" text-anchor="end" font-family="Arial, Helvetica, sans-serif" font-size="15" font-weight="400" fill="#4D4D4D">11</text><line x1="1394" y1="1024.5" x2="1868.5" y2="1024.5" stroke="#ffffff" stroke-width="1.2"/><text x="1383" y="1029.5" text-anchor="end" font-family="Arial, Helvetica, sans-serif" font-size="15" font-weight="400" fill="#4D4D4D">14</text><rect x="1409.8166666666666" y="1087.6758" width="15.016666666666666" height="678.3242" fill="#56B4E9"/><rect x="1567.9833333333333" y="1714.0897035714286" width="15.016666666666666" height="51.91029642857143" fill="#56B4E9"/><rect x="1726.15" y="1343.371482142857" width="15.016666666666666" height="422.6285178571429" fill="#56B4E9"/><rect x="1425.6333333333332" y="1332.2383892857142" width="15.016666666666666" height="433.7616107142858" fill="#E69F00"/><rect x="1583.8" y="1714.8576857142857" width="15.016666666666666" height="51.14231428571429" fill="#E69F00"/><rect x="1741.9666666666667" y="1496.724275" width="15.016666666666666" height="269.27572499999997" fill="#E69F00"/><rect x="1441.45" y="1463.2190678571428" width="15.016666666666666" height="302.7809321428572" fill="#7F3C8D"/><rect x="1599.6166666666668" y="1577.5636642857144" width="15.016666666666666" height="188.43633571428563" fill="#7F3C8D"/><rect x="1757.7833333333335" y="1450.3434499999998" width="15.016666666666666" height="315.65655000000015" fill="#7F3C8D"/><rect x="1457.2666666666667" y="1314.9296607142858" width="15.016666666666666" height="451.0703392857142" fill="#0072B2"/><rect x="1615.4333333333334" y="1726.1125964285714" width="15.016666666666666" height="39.88740357142865" fill="#0072B2"/><rect x="1773.6000000000001" y="1461.9426285714285" width="15.016666666666666" height="304.0573714285715" fill="#0072B2"/><rect x="1473.0833333333333" y="1546.5318892857142" width="15.016666666666666" height="219.46811071428579" fill="#D55E00"/><rect x="1631.25" y="1720.7367214285714" width="15.016666666666666" height="45.2632785714286" fill="#D55E00"/><rect x="1789.4166666666667" y="1535.4146857142857" width="15.016666666666666" height="230.58531428571428" fill="#D55E00"/><rect x="1488.8999999999999" y="1545.8592428571428" width="15.016666666666666" height="220.14075714285718" fill="#009E73"/><rect x="1647.0666666666666" y="1717.4635285714285" width="15.016666666666666" height="48.53647142857153" fill="#009E73"/><rect x="1805.2333333333333" y="1533.5503428571428" width="15.016666666666666" height="232.44965714285718" fill="#009E73"/><rect x="1504.7166666666667" y="1513.381542857143" width="15.016666666666666" height="252.6184571428571" fill="#CC79A7"/><rect x="1662.8833333333334" y="1724.4548142857143" width="15.016666666666666" height="41.54518571428571" fill="#CC79A7"/><rect x="1821.0500000000002" y="1522.851557142857" width="15.016666666666666" height="243.14844285714298" fill="#CC79A7"/><rect x="1520.5333333333333" y="1766" width="15.016666666666666" height="0" fill="#222222"/><rect x="1678.7" y="1766" width="15.016666666666666" height="0" fill="#222222"/><rect x="1836.8666666666668" y="1766" width="15.016666666666666" height="0" fill="#222222"/><text x="1473.0833333333333" y="1789" text-anchor="middle" font-family="Arial, Helvetica, sans-serif" font-size="15" font-weight="400" fill="#4D4D4D">0.05</text><text x="1631.25" y="1789" text-anchor="middle" font-family="Arial, Helvetica, sans-serif" font-size="15" font-weight="400" fill="#4D4D4D">0.10</text><text x="1789.4166666666667" y="1789" text-anchor="middle" font-family="Arial, Helvetica, sans-serif" font-size="15" font-weight="400" fill="#4D4D4D">0.15</text><text x="1631.25" y="1011.5" text-anchor="middle" font-family="Arial, Helvetica, sans-serif" font-size="18" font-weight="400" fill="#1a1a1a">(G) Absolute MTD-selection change vs oracle</text><text x="1338" y="1395.25" text-anchor="middle" font-family="Arial, Helvetica, sans-serif" font-size="15" font-weight="400" fill="#333333" transform="rotate(-90 1338 1395.25)">Percentage points</text><rect x="135" y="1878" width="17" height="17" fill="#56B4E9"/><text x="159" y="1892" text-anchor="start" font-family="Arial, Helvetica, sans-serif" font-size="13" font-weight="400" fill="#222222">r-fixed CRM</text><rect x="303" y="1878" width="17" height="17" fill="#E69F00"/><text x="327" y="1892" text-anchor="start" font-family="Arial, Helvetica, sans-serif" font-size="13" font-weight="400" fill="#222222">Alpha-CRM</text><rect x="471" y="1878" width="17" height="17" fill="#7F3C8D"/><text x="495" y="1892" text-anchor="start" font-family="Arial, Helvetica, sans-serif" font-size="13" font-weight="400" fill="#222222">Cumulative CRM</text><rect x="639" y="1878" width="17" height="17" fill="#0072B2"/><text x="663" y="1892" text-anchor="start" font-family="Arial, Helvetica, sans-serif" font-size="13" font-weight="400" fill="#222222">Discount CRM (0.15, 0.85)</text><rect x="875" y="1878" width="17" height="17" fill="#D55E00"/><text x="899" y="1892" text-anchor="start" font-family="Arial, Helvetica, sans-serif" font-size="13" font-weight="400" fill="#222222">Discount CRM (0.3, 0.7)</text><rect x="1096.44" y="1878" width="17" height="17" fill="#009E73"/><text x="1120.44" y="1892" text-anchor="start" font-family="Arial, Helvetica, sans-serif" font-size="13" font-weight="400" fill="#222222">Discount CRM (0.5, 0.5)</text><rect x="1317.88" y="1878" width="17" height="17" fill="#CC79A7"/><text x="1341.88" y="1892" text-anchor="start" font-family="Arial, Helvetica, sans-serif" font-size="13" font-weight="400" fill="#222222">Discount CRM (1, 1)</text><rect x="1510.2" y="1878" width="17" height="17" fill="#222222"/><text x="1534.2" y="1892" text-anchor="start" font-family="Arial, Helvetica, sans-serif" font-size="13" font-weight="400" fill="#222222">Oracle: r-fixed, alpha = 0</text></svg>